<?xml version="1.0" encoding="iso-8859-1"?>
<!-- Uploaded to: SVG Repo, www.svgrepo.com, Generator: SVG Repo Mixer Tools -->
<svg fill="#fff" height="800px" width="800px" version="1.1" id="Layer_1" xmlns="http://www.w3.org/2000/svg" xmlns:xlink="http://www.w3.org/1999/xlink" 
	 viewBox="0 0 330.001 330.001" xml:space="preserve">
<path id="XMLID_239_" d="M320.741,1.142c-5.603-2.322-12.057-1.039-16.347,3.252L180,128.786V15c0-6.067-3.654-11.537-9.26-13.858
	c-5.602-2.322-12.057-1.039-16.347,3.252L30,128.786V15c0-8.284-6.716-15-15-15S0,6.716,0,15v300c0,8.284,6.716,15,15,15
	s15-6.716,15-15V201.212l124.394,124.395c2.869,2.87,6.706,4.394,10.609,4.394c1.933,0,3.882-0.374,5.737-1.142
	c5.605-2.322,9.26-7.792,9.26-13.858V201.212l124.394,124.395c2.869,2.87,6.706,4.394,10.609,4.394c1.933,0,3.882-0.374,5.737-1.142
	c5.605-2.322,9.26-7.792,9.26-13.858V15C330,8.933,326.346,3.464,320.741,1.142z"/>
</svg>